<svg xmlns="http://www.w3.org/2000/svg" xmlns:xlink="http://www.w3.org/1999/xlink" width="1920" height="837" viewBox="0 0 1920 837">
  <defs>
    <radialGradient id="radial-gradient" cx="0.986" cy="0.174" r="0.786" gradientUnits="objectBoundingBox">
      <stop offset="0" stop-color="#eaf4fe"/>
      <stop offset="0" stop-color="#eaf4fe" stop-opacity="0.988"/>
      <stop offset="1" stop-color="#fff" stop-opacity="0"/>
    </radialGradient>
  </defs>
  <g id="Group_243" data-name="Group 243" transform="translate(0 -4617)">
    <rect id="Rectangle_3" data-name="Rectangle 3" width="1920" height="837" transform="translate(0 4617)" fill="#283887"/>
    <path id="Path_11" data-name="Path 11" d="M1392.969,26.714H1368.7l-16.5-16.5,8.8-8.8h-10.05l-3.775,3.775L1343.4,1.412h-8.085V3.377l6.835,6.835-6.835,6.834v9.667h-9.668l-6.834,6.834-6.834-6.834h-9.667V17.046l-6.834-6.834,6.834-6.835V1.412h-8.084l-3.774,3.774-3.775-3.774h-10.05l8.8,8.8-16.5,16.5H1244.65V16.319l-9.752-6.072L1244.65,3.1V1.412h-9.72l-5.953,4.366-.028-.034-.271.22-4.947-4.113V1.412h-12.116l11.087,9.4-27.15,22.04-21.116-17.025-6.793-5.791,7.591-5.995,0,.006.19-.159.192-.152V3.731l2.765-2.319H1167.1L1161.8,5.6l-6.725-4.188h-9.12V4.1l9.752,6.072-9.752,7.151v9.386h-24.272l-16.5-16.5,8.8-8.8h-10.05l-3.774,3.775-3.775-3.775H1088.3V3.377l6.834,6.835-6.834,6.834v9.667h-9.667l-6.834,6.834-6.834-6.834H1055.3V17.046l-6.835-6.834,6.835-6.835V1.412h-8.085l-3.774,3.774-3.775-3.774h-10.049l8.8,8.8-16.5,16.5H997.639V16.319l-9.752-6.072L997.639,3.1V1.412h-9.72l-5.953,4.366-.028-.034-.271.22L976.72,1.851V1.412H964.6l11.087,9.4-27.15,22.04L927.427,15.831l-6.793-5.791,7.59-5.995,0,.006.189-.158.193-.153V3.731l2.765-2.319H920.094l-5.3,4.188-6.725-4.188h-9.121V4.1l9.752,6.072-9.752,7.151v9.386H874.676l-16.5-16.5,8.8-8.8H856.925L853.15,5.187l-3.774-3.775H841.29V3.377l6.834,6.835-6.834,6.834v9.667h-9.667l-6.834,6.834-6.834-6.834h-9.668V17.046l-6.834-6.834,6.834-6.835V1.412H800.2l-3.774,3.774-3.774-3.774H782.6l8.8,8.8-16.5,16.5H750.629V16.319l-9.752-6.072L750.629,3.1V1.412h-9.72l-5.953,4.366-.028-.034-.271.221L729.71,1.851V1.412H717.594l11.087,9.4-27.15,22.04-21.1-17.014-6.805-5.8,7.589-5.994.005.005L681.4,3.9l.2-.162V3.73l2.764-2.318h-11.28l-5.3,4.188-6.724-4.188h-9.12V4.1l9.752,6.072-9.752,7.151v9.386H627.666l-16.5-16.5,8.8-8.8h-10.05l-3.774,3.775-3.775-3.775h-8.085V3.377l6.835,6.835-6.835,6.834v9.667h-9.667l-6.835,6.834-6.834-6.834h-9.667V17.046l-6.834-6.834,6.834-6.835V1.412h-8.085l-3.774,3.774-3.774-3.774h-10.05l8.8,8.8-16.5,16.5H503.618V16.319l-9.752-6.072L503.618,3.1V1.412H493.9l-5.953,4.366-.027-.034-.272.221L482.7,1.851V1.412H470.583l11.087,9.4-27.15,22.04L433.405,15.831l-6.793-5.791,7.59-5.994,0,.005.172-.145.211-.166V3.73l2.764-2.318h-11.28l-5.3,4.188-6.725-4.188h-9.12V4.1l9.752,6.072-9.752,7.151v9.386H380.655l-16.5-16.5,8.8-8.8H362.9l-3.775,3.775-3.774-3.775h-8.085V3.377l6.834,6.835-6.834,6.834v9.667H337.6l-6.835,6.834-6.834-6.834h-9.667V17.046l-6.834-6.834,6.834-6.835V1.412h-8.084l-3.775,3.774-3.774-3.774h-10.05l8.8,8.8-16.5,16.5H256.607V16.319l-9.752-6.072L256.607,3.1V1.412h-9.72l-5.953,4.366-.028-.034-.271.221-4.947-4.114V1.412H223.573l11.087,9.4-27.15,22.04L186.4,15.836l-6.8-5.8,7.59-5.994,0,.005.166-.139.217-.171V3.73l2.763-2.318h-11.28l-5.3,4.188-6.725-4.188h-9.12V4.1l9.752,6.072-9.752,7.151v9.386H133.644l-16.5-16.5,8.8-8.8h-10.05l-3.774,3.775-3.775-3.775h-8.084V3.377l6.834,6.835-6.834,6.834v9.667H90.591l-6.834,6.834-6.835-6.834H67.254V17.046L60.42,10.212l6.834-6.835V1.412H59.17L55.4,5.186,51.621,1.412H41.571l8.8,8.8-16.5,16.5H9.6V16.319L1.418,11.227V19.6l1.072.668V33.82H26.762L9.6,50.982,18.719,60.1,16.981,71.394l-6.7,1.593L1.418,65.845v9.129L8.53,80.707l6.465-1.537-2.019,6.919L32.86,105.853H1.418v7.107H40.011l24.445,24.3L42.4,159.8H1.418v7.107H35.449L12.637,190.231l2.3,8.866L4.855,197.439l-3.437,2.882v9.274l5.5-4.615,9.9,1.628,2.357,10.137L9.6,226.335,26.762,243.5H2.49v12.891l-1.072.787v8.813l8.179-6V250.6H33.869l16.5,16.5-16.5,16.5H9.6V273.212l-8.179-5.093v8.371l1.072.668v13.554H26.762L9.6,307.874l9.118,9.119-1.739,11.293-6.7,1.593-8.859-7.143v9.128L8.53,337.6l6.465-1.537-2.019,6.919L32.86,362.745H1.418v7.107H40.011l24.445,24.3L42.4,416.695H1.418V423.8H35.449L12.637,447.123l2.3,8.866L4.855,454.331l-3.437,2.882v9.274l5.5-4.615,9.9,1.628,2.357,10.137L9.6,483.228l17.16,17.16H2.49V513.28l-1.072.786v8.812l8.179-6v-9.386H33.869L50.37,524l-16.5,16.5H9.6V530.1l-8.179-5.093v8.371l1.072.668V547.6H26.763L9.6,564.767l9.118,9.119-1.739,11.293-6.7,1.593-8.859-7.143v9.128l7.112,5.735,6.465-1.537-2.019,6.919L32.86,619.637H1.418v7.107H40.011l24.445,24.3L42.4,673.587H1.418v7.107H35.449L12.637,704.015l2.3,8.866L4.855,711.223l-3.437,2.883v9.273l5.5-4.615,9.9,1.628,2.357,10.137L9.6,740.12l17.161,17.161H2.49v12.891l-1.072.786v8.812l8.179-6v-9.386H33.869l16.5,16.5-4.9,4.9H65.317l-4.9-4.9,6.834-6.834v-9.667h9.667l6.835-6.834,6.834,6.834h9.667v9.667l6.834,6.834-4.9,4.9h19.843l-4.9-4.9,16.5-16.5h24.273v10.394l9.752,6.072-6.725,4.931h12.016l.879-.644.756.644h10.953l-5.945-5.068,7.59-5.995,0,.005.167-.14.216-.171v-.011l19.472-16.329,27.608,23.414-5.289,4.294h11.275l.249-.2.325.2h13.444l-7.807-4.861,9.752-7.152v-9.386h24.272l16.5,16.5-4.9,4.9h19.843l-4.9-4.9,6.834-6.834v-9.667h9.667l6.834-6.834,6.835,6.834h9.667v9.667l6.834,6.834-4.9,4.9H369.05l-4.9-4.9,16.5-16.5h24.272v10.394l9.752,6.072-6.725,4.931h12.016l.879-.644.756.644h10.953l-5.945-5.069,7.59-5.994,0,.005.173-.145.21-.166v-.01l19.472-16.329,27.609,23.414-5.289,4.294h11.275l.249-.2.325.2h13.444l-7.807-4.861,9.752-7.152v-9.386H527.89l16.5,16.5-4.9,4.9h19.843l-4.9-4.9,6.834-6.834v-9.667h9.667l6.834-6.834,6.835,6.834h9.667v9.667l6.835,6.834-4.9,4.9H616.06l-4.9-4.9,16.5-16.5h24.273v10.394l9.752,6.072-6.725,4.931h12.016l.879-.644.755.644h10.953l-5.944-5.068,7.589-6,.005.006.178-.15.2-.161v-.01l19.473-16.329,27.608,23.414-5.289,4.294h11.275l.248-.2.325.2h13.445l-7.808-4.861,9.752-7.152v-9.386H774.9l16.5,16.5-4.9,4.9h19.843l-4.9-4.9,6.834-6.834v-9.667h9.668l6.834-6.834,6.834,6.834h9.667v9.667l6.834,6.834-4.9,4.9h19.843l-4.9-4.9,16.5-16.5h24.272v10.394l9.752,6.072-6.725,4.931h12.016l.879-.644.756.644h10.953l-5.945-5.068,7.591-6,0,.006.189-.159.192-.152v-.009l19.473-16.33,27.608,23.414-5.289,4.294h11.275l.249-.2.325.2h13.443l-7.807-4.861,9.752-7.152v-9.386h24.272l16.5,16.5-4.9,4.9h19.843l-4.9-4.9,6.834-6.834v-9.667h9.667l6.834-6.834,6.834,6.834h9.667v9.667l6.834,6.834-4.9,4.9h19.844l-4.9-4.9,16.5-16.5h24.272v10.394l9.752,6.072-6.725,4.931H1161l.879-.644.756.644h10.952l-5.944-5.068,7.591-6,0,.006.19-.16.192-.151v-.009l19.473-16.33,27.609,23.414-5.29,4.294h11.276l.249-.2.325.2h13.444l-7.807-4.861,9.752-7.152v-9.386h24.272l16.5,16.5-4.9,4.9h19.843l-4.9-4.9,6.834-6.834v-9.667h9.667l6.834-6.834,6.834,6.834h9.668v9.667l6.834,6.834-4.9,4.9h19.843l-4.9-4.9,16.5-16.5h24.272v10.394l2.889,1.8v-19.3H1375.8l17.162-17.163L1383.847,731l1.726-11.21,8.914-2.1,1.373,1.164V710.07l-9.281,2.172,1.376-11.16L1371.87,685l-3.806-4.029,27.794.07v-7.107l-34.522-.086-21.635-22.9,24.56-24.8h31.6v-7.107H1371.3l18.444-18.622-2.156-8.473,8.271,1.272v-8.661l-1.523,1.237-8.6-1.324-2.351-10.11,9.581-9.59L1375.8,547.6h20.055V528.993l-2.889,2.119V540.5H1368.7L1352.2,524l16.5-16.5h24.272v10.394l2.889,1.8v-19.3H1375.8l17.162-17.161-9.119-9.119,1.726-11.21,8.914-2.1,1.373,1.164v-8.787l-9.281,2.172,1.376-11.16-16.083-16.083-3.806-4.029,27.794.069v-7.107l-34.522-.086L1339.7,394.049l24.56-24.8h31.6v-7.107H1371.3l18.444-18.624-2.156-8.473,8.271,1.274v-8.662l-1.523,1.236-8.6-1.324-2.351-10.11,9.581-9.59-17.16-17.16h20.054V272.1l-2.889,2.119v9.386H1368.7l-16.5-16.5,16.5-16.5h24.272V261l2.889,1.8V243.5H1375.8l17.162-17.163-9.119-9.118,1.726-11.21,8.914-2.1,1.373,1.164v-8.787l-9.281,2.172,1.376-11.159-16.083-16.084-3.806-4.029,27.794.07v-7.107l-34.522-.086-21.634-22.9,24.559-24.8h31.6v-7.107H1371.3l18.444-18.623-2.157-8.473,8.271,1.273V70.769l-1.523,1.237-8.6-1.324-2.351-10.11,9.581-9.59L1375.8,33.82h20.054V15.208l-2.889,2.119Zm-50.551-6.724,4.753-4.753,11.477,11.477h-16.23Zm-13.831,13.83h6.724V50.05h0l-11.477-11.477Zm-26.279,0h6.724l4.753,4.753L1302.307,50.05Zm0,26.279,16.5-16.5,16.5,16.5V84.372h-10.136l-6.123,7.708-7.682-7.708h-9.062Zm-106.74,495.68,21.118,17.026.071,48.159-19.625,23.1-21.693-22.888V572.121Zm-20.129,7.188V539.551l14.472,11.668Zm25.771-11.768,15.427-12.523.036,24.99Zm-5.657-4.561L1174.421,529.6l-6.778-5.778,7.591-5.995,0,.005.177-.147.206-.163v-.01l19.473-16.33L1222.7,524.6ZM948.557,555.78l21.117,17.026.07,48.159-19.625,23.1-21.693-22.888V572.121Zm-20.13,7.188V539.551L942.9,551.219ZM954.2,551.2l15.427-12.523.036,24.99Zm-5.657-4.56L927.411,529.6l-6.778-5.779,7.59-5.995,0,.005.176-.147.206-.163v-.01l19.473-16.33L975.692,524.6Zm-247,9.14,21.119,17.026.07,48.158-19.625,23.1-21.692-22.888V572.12Zm-20.129,7.187V539.551l14.472,11.668Zm25.77-11.767,15.427-12.523.036,24.99Zm-5.657-4.56-21.118-17.026-6.79-5.789,7.59-5.995,0,.005.163-.138.219-.172v-.011l19.473-16.329L728.681,524.6Zm-247,9.14,21.118,17.026.07,48.159-19.625,23.1-21.693-22.888V572.121Zm-20.129,7.187V539.551l14.472,11.668ZM460.177,551.2,475.6,538.677l.036,24.99Zm-5.657-4.56L433.39,529.6l-6.778-5.779,7.59-5.995,0,.005.158-.133.224-.177v-.011l19.473-16.329L481.671,524.6Zm-247,9.14,21.118,17.026.07,48.159-19.625,23.1L187.4,621.174V572.12ZM187.4,562.967V539.551l14.472,11.668Zm25.77-11.767,15.427-12.523.036,24.99Zm-5.657-4.561-21.124-17.031-6.783-5.783,7.59-5.994,0,0,.153-.128.231-.182v-.012l19.472-16.329L234.66,524.6Zm21.031-385.356.023,55.695L207.077,235l-19.577-16.6-.1-51.615,21.976-25.865,19.307,20.37Zm.039,91.949-16-13.572,15.993-13.411Zm-27.027-13.6-13.991,11.732-.045-23.636Zm-13.973,21v-.012l19.472-16.329,27.608,23.415-27.15,22.039-21.124-17.031-6.783-5.783,7.59-5.994,0,0,.153-.128Zm40.962,157.543.023,55.695-21.487,18.019-19.577-16.6-.1-51.615L209.378,397.8l19.307,20.37Zm.039,91.949-16-13.572,15.993-13.411Zm-27.027-13.6-13.991,11.733-.045-23.636ZM143.114,583.3l-11.946-1.84-6.642,6.641-17.162-17.162V547.6H130.7l17.164,17.164-7.349,7.355ZM107.364,348.37V324.1l17.162,17.162,9.12-9.119,11.256,1.733,1.911,7.5-20.568,20.767H97.13l-8.08-8.106,4.5-5.669Zm-7.106-41.428L88.781,295.465l4.753-4.753h6.724Zm47.6-80.608L130.7,243.5H107.364V220.16L124.527,203l7.356,7.349,11.177-2.6-1.839,11.948Zm19.805,40.735-9.752,7.152v9.386H133.644l-16.5-16.5,16.5-16.5h24.273V261Zm12.622,9.861v34.913L159.282,328.9l-8.6-1.323-2.351-10.11,9.581-9.59-17.16-17.16h24.272V277.821l8.815-6.465,6.363,5.425-.038.047Zm-27.756,58.118,8.781,1.352L180.29,321v41.148H136.246l18.445-18.624ZM123.594,250.6l-11.477,11.477-4.753-4.753V250.6Zm-11.477,21.527,11.477,11.477h-16.23v-6.725ZM130.7,290.713l17.163,17.163-7.349,7.356,2.6,11.177-11.946-1.84-6.642,6.641-17.162-17.162V290.713ZM98.746,369.252h20.461L99.767,388.88l-9.933-10.516Zm17.738,47.678-19.074-.047-7.748-7.7L99.645,399.1Zm6.728,7.123,8.473,8.97,13.737,13.739-1.272,10.312-10.036,2.349-9.591-9.581L107.364,467V442.73H94.509L88.536,434.3l7.908-10.319Zm13.6,4.054-3.806-4.029,47.285.118.086,45.054-19.087-16.187-9.771,2.286,1.376-11.16Zm-29.453,86.112v-6.724h16.23l-11.477,11.477ZM123.594,540.5H107.364v-6.724l4.753-4.753Zm-16.229-40.11V477.052l17.163-17.163,7.356,7.348,11.177-2.6-1.839,11.948,6.64,6.641L130.7,500.388ZM117.142,524l16.5-16.5h24.273v10.394l9.752,6.072-9.752,7.152V540.5H133.644Zm47.881-10.053V500.388H140.75l17.163-17.161-9.12-9.119,1.726-11.21,8.914-2.1L180.4,478.582l.067,35.506-6.7,5.3Zm-38.739-96.989-21.635-22.905,24.559-24.8h53.108l22.145,23.366-20.8,24.48Zm82.805-29.784L187.4,364.282V315.228l20.129-16.34,21.118,17.026.07,48.159Zm-21.692-81.1V282.659l14.472,11.668Zm25.77-11.767,15.427-12.523.036,24.99Zm-39.405-31.816-8.738-5.441V243.5H140.75l17.163-17.163-9.12-9.118,1.726-11.21,8.914-2.1L180.4,221.689l.067,35.506ZM161.295,196.17l-9.771,2.286L152.9,187.3l-16.083-16.084-3.806-4.029,47.285.118.086,45.054Zm-15.871-6.3-1.272,10.312-10.036,2.349-9.591-9.581-17.16,17.161V185.838H94.509l-5.972-8.425,7.908-10.32,26.768.067,8.473,8.97ZM97.411,159.99l-7.748-7.7,9.983-10.079,16.839,17.828Zm-7.577-38.519,8.913-9.112h20.461l-19.44,19.628ZM84.95,116.3l-6.038-6.393,5.687-7.16,6.868,6.89Zm9.813,20.739L84.623,147.279l-10.158-10.1,10.4-10.628Zm-10.1,20.3,5.85,5.815-6.278,8.192-5.608-7.911Zm6.175,35.607h9.422v24.272l-16.5,16.5-16.5-16.5V192.944h9.2v-.385l.3.23,7.258-9.472Zm9.422,34.322V243.5H93.535l-4.753-4.753ZM78.732,238.743,73.978,243.5H67.254V227.266ZM76.922,250.6l6.835-6.834,6.834,6.834h9.667v9.667l6.834,6.834-6.834,6.834v9.668H90.591l-6.834,6.834-6.835-6.834H67.254v-9.668L60.42,267.1l6.834-6.834V250.6Zm1.81,44.863L67.254,306.942V290.713h6.724ZM67.254,316.992l16.5-16.5,16.5,16.5v24.272H90.122L84,348.972l-7.683-7.708H67.254ZM84.6,359.641l6.868,6.89-6.518,6.663L78.911,366.8Zm10.163,34.292-10.14,10.239-10.158-10.1,10.4-10.628Zm-10.1,20.3,5.85,5.814-6.278,8.192-5.608-7.911Zm6.175,35.606h9.422v24.272l-16.5,16.5-16.5-16.5V449.836h9.2v-.385l.3.229,7.258-9.472Zm-2.055,45.8,11.477-11.477v16.229H93.535l-4.753-4.752Zm-10.049,0-4.753,4.752H67.254v-16.23Zm-1.81,11.859,6.835-6.834,6.834,6.834h9.667v9.667L107.093,524l-6.834,6.834V540.5H90.591l-6.834,6.835L76.922,540.5H67.254V530.83L60.42,524l6.834-6.834v-9.667Zm23.337,40.11v16.23L88.781,552.358l4.753-4.753Zm-21.527,4.753L67.254,563.835V547.6h6.724ZM67.254,573.884l16.5-16.5,16.5,16.5v24.271H90.122L84,605.864l-7.683-7.709H67.254ZM84.6,616.532l6.868,6.89-6.518,6.664-6.039-6.393Zm10.163,34.292L84.622,661.063l-10.158-10.1,10.4-10.628Zm-10.1,20.3,5.85,5.815-6.278,8.192-5.609-7.912Zm5-5.049,9.983-10.08,16.839,17.828-19.074-.047Zm.171-30.817,8.914-9.112h20.461l-19.44,19.629Zm7.3-16.219-8.08-8.106,4.5-5.669h13.812V580.99l17.162,17.163,9.12-9.119,11.256,1.733,1.911,7.5-20.567,20.766Zm57.561-18.622-2.157-8.473,8.781,1.352,18.975-15.4v41.148H136.247Zm4.591-14.624-8.6-1.324-2.351-10.11,9.581-9.59L140.75,547.6h24.273V534.713l8.815-6.464,6.363,5.425-.038.046.127.1v34.913Zm54.725-193.432,19.122-22.506h53.893l24.445,24.3-22.055,22.548H237.073ZM475.552,161.283l.023,55.7L454.088,235l-19.577-16.6-.1-51.615,21.976-25.865,19.307,20.37Zm.039,91.95-16-13.573,15.993-13.411Zm-27.027-13.6-13.992,11.732-.044-23.636Zm-13.974,21v-.011l19.473-16.329,27.608,23.415-27.15,22.039-21.13-17.035-6.778-5.779,7.59-5.995,0,.005.158-.133Zm40.962,157.543.023,55.695-21.487,18.019-19.577-16.6-.1-51.615L456.388,397.8l19.307,20.37Zm.039,91.95-16-13.573,15.993-13.411Zm-27.027-13.6-13.992,11.733-.044-23.637ZM390.126,583.3l-11.948-1.84-6.64,6.641-17.162-17.162V547.6h23.335l17.164,17.164-7.348,7.355Zm-64.2,40.392,5.688-7.16,6.868,6.89-6.518,6.664Zm15.852,27.131-10.141,10.239-10.158-10.1,10.4-10.628Zm-10.764-44.96-7.683-7.709h-9.061V573.884l16.5-16.5,16.5,16.5v24.272H337.132Zm-16.744-42.03V547.6h6.724l4.753,4.753Zm21.527-11.477,4.753-4.753h6.724v16.23h0Zm1.81-11.86-6.835,6.835-6.834-6.835h-9.667V530.83L307.431,524l6.834-6.834v-9.667h9.667l6.834-6.834,6.835,6.834h9.667v9.667L354.1,524l-6.834,6.834V540.5Zm-70.941,24.269L283.823,547.6h23.337v23.337L290,588.1l-7.364-7.357L271.454,583.4l1.847-12Zm-19.805-40.735,9.752-7.152v-9.386h24.272l16.5,16.5-16.5,16.5H256.607V530.1ZM290.929,540.5l11.477-11.477,4.753,4.753V540.5Zm11.477-21.527-11.477-11.477h16.23v6.724Zm-18.583-18.583-17.163-17.163,7.348-7.356-2.6-11.178,11.947,1.84L290,459.889l17.163,17.163v23.336ZM290,449.84l-9.119,9.119-11.267-1.735-2.076-8L292.4,423.8h26.99l7.33,10.34-6.582,8.589H307.159V467ZM273.773,243.5H249.5v12.891l-8.566,6.282-.028-.033-.27.22-4.948-4.113-.016-38.452,18.259-15.311,9.9,1.628,2.357,10.137-9.581,9.59Zm-2.364-35.7,11.947,1.84L290,203l17.163,17.163V243.5H283.823l-17.163-17.164,7.348-7.356Zm-4.748,100.075,17.162-17.162h23.337v23.336L290,331.212l-7.364-7.356-11.177,2.657,1.847-12Zm-19.8-40.735,9.751-7.15V250.6h24.272l16.5,16.5-16.5,16.5H256.607V273.212Zm44.072,16.467,11.477-11.477,4.753,4.753v6.725Zm11.477-21.527L290.929,250.6h16.23v6.724ZM239.6,272.849l1.294-1.05,8.606,5.36v13.554h24.272l-17.162,17.162,9.12,9.119-1.739,11.293-6.7,1.593-21.543-17.37-.053-36.308Zm15.94,64.751L262,336.062l-2.019,6.919,19.885,19.763H235.818l-.06-41.1Zm12.45,3.319,1.969-6.747,10.456-2.485L290,341.259,307.159,324.1V348.37h13.217l6.183,6.2-6.491,8.171H289.952Zm63.682-183.581,5.85,5.815-6.278,8.192-5.608-7.911Zm-.039-10.058-10.158-10.1,10.4-10.628,9.9,10.484Zm6.213,45.665h9.423v24.272l-16.5,16.5-16.5-16.5V192.944h9.2v-.385l.3.23,7.258-9.472Zm9.423,34.322V243.5h-6.724l-4.753-4.753Zm-21.527,11.477-4.753,4.753h-6.724v-16.23Zm-1.81,11.859,6.834-6.834L337.6,250.6h9.667v9.667L354.1,267.1l-6.834,6.834v9.668H337.6l-6.835,6.834-6.834-6.834h-9.667v-9.668l-6.834-6.834,6.834-6.834V250.6Zm70.941-24.268L377.711,243.5H354.376V220.16L371.539,203l7.356,7.349,11.178-2.6-1.84,11.948Zm19.8,40.735-9.752,7.152v9.386H380.655l-16.5-16.5,16.5-16.5h24.272V261Zm12.622,9.861v34.914L406.292,328.9l-8.6-1.323-2.351-10.11,9.581-9.59-17.16-17.16h24.271V277.821l8.815-6.465,6.363,5.425-.038.047Zm-27.756,58.119,8.781,1.352L427.3,321v41.148H383.256L401.7,343.521ZM370.6,250.6l-11.477,11.477-4.753-4.753V250.6Zm-11.477,21.527L370.6,283.606H354.376v-6.725Zm18.583,18.584,17.163,17.163-7.348,7.356,2.6,11.177-11.948-1.84-6.64,6.641-17.162-17.162V290.713Zm-6.174,50.548,9.118-9.119,11.256,1.733,1.911,7.5-20.568,20.767H344.139l-8.08-8.107,4.5-5.669h13.813V324.1Zm-40.771,149.35-16.5-16.5V449.836h9.2v-.385l.3.229,7.258-9.472,6.825,9.627h9.423v24.272Zm16.5-6.452v16.229h-6.724l-4.753-4.752Zm-21.527,11.477-4.753,4.752h-6.724v-16.23l11.477,11.477Zm-.106-75.311,6.036-6.095,5.85,5.814-6.278,8.192Zm5.13-119.835,16.5,16.5v24.273H337.132l-6.123,7.708-7.683-7.708h-9.061V316.991Zm-16.5,6.451V290.713h6.724l4.753,4.753Zm21.527-11.477,4.753-4.753h6.724v16.229h0Zm-4.183,64.176,6.868,6.89-6.517,6.663-6.039-6.393Zm10.164,34.292-10.14,10.239-10.158-10.1,10.4-10.628Zm-5.1,15.248,9.983-10.079L363.5,416.929l-19.074-.047Zm.171-30.817,8.912-9.112h20.461l-19.44,19.629Zm-17.816-8.512,7.959,8.427-10.552,10.788L297.1,369.851Zm-2.522,29.3,10.126,10.065-7.4,7.474H299.351Zm25.013,43.574-5.973-8.425,7.908-10.32,26.769.067,8.473,8.97,13.738,13.739-1.272,10.312-10.036,2.349-9.59-9.581L354.376,467V442.73Zm42.309-14.623-3.806-4.03,47.285.118.085,45.054L408.3,453.063l-9.77,2.286,1.376-11.16Zm-29.452,86.111v-6.724H370.6l-11.477,11.477ZM370.6,540.5H354.376v-6.724l4.753-4.753Zm-16.229-40.11V477.052l17.163-17.163,7.356,7.348,11.178-2.6-1.84,11.948,6.641,6.641-17.163,17.161ZM364.153,524l16.5-16.5h24.272v10.394l9.752,6.072-9.752,7.152V540.5H380.654Zm47.88-10.053V500.388H387.761l17.163-17.161-9.119-9.119,1.726-11.21,8.914-2.1,20.966,17.781.068,35.506-6.7,5.3Zm-38.739-96.989-21.635-22.905,24.559-24.8h53.107l22.145,23.366-20.8,24.48ZM456.1,387.17l-21.693-22.888V315.229l20.129-16.341,21.118,17.026.07,48.159Zm-21.693-81.095V282.659l14.472,11.668Zm25.771-11.768L475.6,281.785l.036,24.99Zm-39.405-31.816-8.739-5.441V243.5H387.761l17.163-17.163-9.119-9.118,1.726-11.21,8.914-2.1,20.966,17.781.068,35.506ZM408.3,196.17l-9.77,2.286,1.376-11.159-16.083-16.083-3.806-4.029,47.285.118.085,45.054Zm-15.87-6.3-1.272,10.312-10.036,2.349-9.59-9.581-17.16,17.161V185.838H341.519l-5.973-8.425,7.908-10.32,26.769.067,8.473,8.97Zm-48.013-29.88-7.748-7.7,9.983-10.079L363.5,160.037Zm-7.577-38.519,8.912-9.112h20.461l-19.44,19.629Zm-4.883-5.17-6.039-6.393,5.688-7.16,6.868,6.89Zm-4.973,5.085-10.552,10.788L297.1,112.959h21.926Zm-10.482,20.877,10.126,10.065-7.4,7.474H299.351Zm2.884,24.645,7.33,10.34-6.582,8.589H307.159V210.11L290,192.948l-9.119,9.12-11.267-1.735-2.076-8L292.4,166.909Zm-59.742,23.322,2.3,8.866-10.083-1.657-16.2,13.582-.019-44.112h46.81ZM282.46,423.8l-22.811,23.322,2.3,8.866-10.084-1.657-16.2,13.582L235.65,423.8Zm-28.528,38.071,9.9,1.628,2.357,10.137-9.581,9.591,17.16,17.16H249.5V513.28l-8.566,6.281-.028-.033-.271.22-4.947-4.114-.016-38.45ZM239.6,529.741l1.294-1.05,8.606,5.359V547.6h24.273l-17.162,17.163,9.119,9.119-1.739,11.293-6.7,1.593L235.744,569.4l-.053-36.308Zm15.94,64.751L262,592.955l-2.019,6.919,19.885,19.763H235.818l-.06-41.1Zm12.449,3.319,1.97-6.746,10.456-2.486L290,598.151l17.162-17.161v24.272h13.217l6.183,6.2-6.491,8.171H289.952Zm51.038,28.933,7.959,8.426-10.553,10.789L297.1,626.744Zm-2.522,29.3,10.126,10.065-7.4,7.474H299.35Zm15.167,15.074,5.85,5.815-6.278,8.192-5.609-7.912Zm5-5.049,9.983-10.08,16.84,17.828-19.074-.047Zm.171-30.817,8.914-9.112h20.461l-19.441,19.629Zm7.3-16.219-8.08-8.106,4.5-5.669h13.813V580.99l17.162,17.163,9.118-9.119,11.256,1.733,1.911,7.5-20.567,20.766ZM401.7,600.414l-2.157-8.473,8.781,1.352,18.975-15.4v41.147H383.257Zm4.591-14.624-8.6-1.324-2.351-10.11,9.581-9.59L387.761,547.6h24.272V534.713l8.815-6.464,6.363,5.425-.038.046.127.1v34.915Zm54.724-193.432,19.123-22.506h53.893l24.445,24.3-22.055,22.548H484.083ZM722.562,161.283l.023,55.695L701.1,235l-19.577-16.6-.1-51.616L703.4,140.913l19.307,20.37Zm.038,91.95-16-13.573,15.993-13.411Zm-27.027-13.6-13.992,11.733-.044-23.636Zm-13.974,21v-.011l19.473-16.329,27.608,23.415-27.15,22.04-21.118-17.026-6.79-5.789,7.59-5.995,0,.005.163-.137Zm40.962,157.543.023,55.695L701.1,491.889l-19.577-16.6-.1-51.616L703.4,397.8l19.307,20.37Zm.038,91.95-16-13.573,15.993-13.411Zm-27.027-13.6-13.992,11.733-.044-23.636ZM637.136,583.3l-11.947-1.84-6.641,6.641-17.163-17.162V547.6h23.336l17.164,17.164-7.349,7.355Zm-64.2,40.392,5.688-7.16,6.868,6.89-6.518,6.664Zm15.852,27.131-10.141,10.239-10.158-10.1,10.4-10.628Zm-10.764-44.96-7.683-7.709h-9.061V573.884l16.5-16.5,16.5,16.5v24.271H584.143Zm-16.744-42.029V547.6H568l4.753,4.753ZM582.8,552.358l4.753-4.753h6.723v16.23Zm1.81-11.86-6.835,6.835-6.834-6.835h-9.667V530.83L554.442,524l6.834-6.834v-9.667h9.667l6.834-6.834,6.835,6.834h9.667v9.667L601.114,524l-6.835,6.834V540.5Zm-70.941,24.269L530.833,547.6h23.336v23.337L537.006,588.1l-7.364-7.357L518.465,583.4l1.847-12Zm-19.8-40.735,9.752-7.152v-9.386H527.89l16.5,16.5-16.5,16.5H503.618V530.1ZM537.94,540.5l11.477-11.477,4.753,4.753V540.5Zm11.477-21.527L537.94,507.494h16.229v6.724Zm-18.583-18.583L513.67,483.225l7.348-7.356-2.6-11.178,11.947,1.84,6.641-6.641,17.162,17.163v23.336Zm6.174-50.548-9.119,9.119-11.267-1.735-2.076-8L539.41,423.8H566.4l7.33,10.34-6.582,8.589H554.169V467ZM520.783,243.5H496.511v12.891l-8.566,6.282-.027-.033-.271.22-4.948-4.113-.016-38.452,18.259-15.311,9.9,1.628,2.357,10.137-9.581,9.59Zm-2.364-35.7,11.947,1.84L537.007,203l17.162,17.163V243.5H530.833L513.67,226.332l7.349-7.356Zm-4.748,100.075,17.162-17.162h23.336v23.336l-17.163,17.163-7.364-7.356-11.177,2.657,1.847-12Zm-19.805-40.735,9.752-7.15V250.6H527.89l16.5,16.5-16.5,16.5H503.618V273.212Zm44.073,16.467,11.477-11.477,4.753,4.753v6.725Zm11.477-21.527L537.94,250.6h16.229v6.724Zm-62.808,10.774,1.3-1.053,8.606,5.359v13.554h24.272l-17.161,17.162,9.118,9.119L511,328.286l-6.7,1.593-21.543-17.37L482.7,276.2ZM502.552,337.6l6.465-1.537L507,342.982l19.885,19.763H482.828l-.06-41.1ZM515,340.918l1.969-6.747,10.456-2.485,9.582,9.573,17.16-17.16V348.37h13.217l6.183,6.2-6.491,8.171H536.962Zm63.682-183.581,5.85,5.815-6.278,8.192-5.608-7.911Zm-.039-10.058-10.158-10.1,10.4-10.628,9.9,10.484Zm6.214,45.665h9.421v24.272l-16.5,16.5-16.5-16.5V192.944h9.2v-.385l.3.23,7.258-9.472Zm9.421,34.322V243.5h-6.723l-4.753-4.753Zm-21.526,11.477L568,243.5h-6.724V227.266Zm-1.81,11.859,6.834-6.834,6.835,6.834h9.667v9.667l6.835,6.834-6.835,6.834v9.668h-9.667l-6.835,6.834-6.834-6.834h-9.667v-9.668l-6.834-6.834,6.834-6.834V250.6Zm70.941-24.268L624.721,243.5H601.385V220.16L618.549,203l7.356,7.349,11.177-2.6-1.84,11.948Zm19.805,40.735-9.752,7.152v9.386H627.666l-16.5-16.5,16.5-16.5h24.273V261Zm12.622,9.861v34.914L653.3,328.9l-8.6-1.324-2.351-10.11,9.581-9.59-17.16-17.16h24.272V277.821l8.815-6.465,6.362,5.425-.038.047Zm-27.756,58.119,8.781,1.352L674.311,321v41.148H630.267l18.445-18.624ZM617.615,250.6l-11.477,11.477-4.753-4.753V250.6Zm-11.477,21.527,11.477,11.477h-16.23v-6.725Zm18.584,18.584,17.163,17.163-7.349,7.356,2.6,11.177-11.947-1.84-6.641,6.641-17.163-17.162V290.713Zm-6.174,50.548,9.119-9.119,11.256,1.733,1.911,7.5-20.567,20.767H591.15l-8.08-8.107,4.5-5.669h13.812V324.1h0ZM582.8,495.635l11.477-11.477v16.229h-6.723l-4.753-4.752Zm-5.024-5.024-16.5-16.5V449.836h9.2v-.385l.3.229,7.258-9.472,6.825,9.627h9.421v24.272Zm-5.025,5.025L568,500.388h-6.724v-16.23Zm-.106-75.311,6.036-6.095,5.85,5.814-6.278,8.192Zm5.13-119.835,16.5,16.5v24.272H584.143l-6.123,7.708-7.683-7.708h-9.061V316.992Zm-16.5,6.451V290.713H568l4.753,4.753ZM582.8,295.465l4.753-4.753h6.723v16.229Zm-4.182,64.176,6.868,6.89-6.518,6.663-6.039-6.393Zm10.164,34.292-10.141,10.239-10.158-10.1,10.4-10.628Zm-5.1,15.248,9.983-10.079,16.84,17.828-19.075-.047Zm.171-30.816,8.913-9.112h20.461l-19.44,19.629Zm-17.816-8.513,7.96,8.427-10.553,10.788-19.333-19.215Zm-2.522,29.3,10.126,10.065-7.4,7.474h-19.88ZM588.53,442.73l-5.972-8.425,7.908-10.319,26.77.067,8.473,8.97,13.737,13.739-1.272,10.312-10.036,2.349-9.59-9.581L601.385,467V442.73Zm42.309-14.623-3.806-4.029,47.285.118.086,45.054-19.087-16.187-9.771,2.286,1.376-11.16Zm-29.453,86.112v-6.724h16.23l-11.477,11.477ZM617.615,540.5H601.385v-6.724l4.753-4.753Zm-16.229-40.11V477.052l17.164-17.163,7.356,7.348,11.177-2.6-1.84,11.947,6.641,6.641-17.163,17.161ZM611.163,524l16.5-16.5h24.273v10.394l9.752,6.072-9.752,7.152V540.5H627.665Zm47.881-10.053V500.388H634.771l17.162-17.161-9.118-9.119,1.726-11.21,8.914-2.1,20.967,17.782.068,35.505-6.706,5.3ZM620.3,416.954,598.67,394.049l24.56-24.8h53.107l22.146,23.365-20.8,24.48Zm82.805-29.784-21.692-22.887V315.228l20.129-16.34,21.119,17.026.07,48.158Zm-21.692-81.095V282.659l14.472,11.668Zm25.77-11.767,15.427-12.523.036,24.99Zm-39.405-31.816-8.738-5.441V243.5H634.771l17.162-17.163-9.118-9.118,1.726-11.21,8.914-2.1,20.967,17.782.068,35.505ZM655.316,196.17l-9.771,2.286,1.376-11.159-16.083-16.084-3.806-4.029,47.285.118.086,45.054Zm-15.872-6.3-1.272,10.312-10.036,2.349-9.59-9.581L601.385,210.11V185.838H588.53l-5.972-8.425,7.908-10.32,26.77.067,8.473,8.97Zm-48.012-29.88-7.748-7.7,9.983-10.08,16.84,17.828Zm-7.577-38.519,8.913-9.112h20.461l-19.441,19.629Zm-4.883-5.17-6.039-6.393,5.688-7.16,6.868,6.89ZM574,121.386l-10.553,10.788-19.333-19.215h21.926Zm-10.482,20.877,10.126,10.065-7.4,7.474h-19.88Zm2.883,24.645,7.33,10.34-6.582,8.589H554.169V210.11l-17.162-17.163-9.119,9.12-11.267-1.735-2.076-8,24.865-25.422Zm-59.742,23.322,2.3,8.866-10.083-1.657-16.2,13.582-.019-44.112h46.81ZM529.47,423.8l-22.812,23.322,2.3,8.866-10.083-1.657-16.2,13.582L482.66,423.8Zm-28.528,38.071,9.9,1.628,2.357,10.137-9.581,9.591,17.16,17.16H496.511V513.28l-8.566,6.281-.027-.033-.272.22-4.947-4.114-.016-38.45Zm-14.334,67.871,1.3-1.053,8.606,5.359V547.6h24.273l-17.162,17.163,9.118,9.119L511,585.179l-6.7,1.593L482.755,569.4l-.053-36.308Zm15.943,64.748,6.465-1.537L507,599.874l19.885,19.763H482.828l-.06-41.1ZM515,597.811l1.969-6.746,10.456-2.486,9.582,9.573,17.16-17.16v24.271h13.217l6.183,6.2-6.491,8.171H536.962Zm51.037,28.933L574,635.17l-10.552,10.789-19.333-19.215Zm-2.522,29.3,10.126,10.065-7.4,7.474H546.361Zm15.167,15.074,5.85,5.815-6.278,8.192-5.609-7.912Zm5-5.049,9.983-10.08,16.839,17.828-19.074-.047Zm.171-30.817,8.914-9.112h20.461l-19.441,19.629Zm7.3-16.219-8.08-8.106,4.5-5.669h13.812V580.99h0l17.163,17.163,9.119-9.119,11.256,1.733,1.911,7.5-20.567,20.766Zm57.562-18.622-2.157-8.473,8.781,1.351,18.975-15.4v41.148H630.268ZM653.3,585.79l-8.6-1.324-2.351-10.11,9.581-9.59L634.771,547.6h24.273V534.713l8.815-6.464,6.362,5.425-.038.046.127.1v34.914Zm54.723-193.432,19.123-22.506h53.893l24.445,24.3-22.055,22.548H731.094ZM969.573,161.283l.023,55.7L948.109,235l-19.578-16.6-.1-51.615,21.976-25.865,19.307,20.37Zm.038,91.95-16-13.573L969.6,226.25Zm-27.027-13.6-13.992,11.733-.045-23.637Zm-13.974,21v-.01l19.473-16.329,27.608,23.414-27.15,22.039-21.13-17.035-6.778-5.779,7.59-5.995,0,.005.176-.147Zm40.963,157.543.023,55.7-21.487,18.018-19.578-16.6-.1-51.615L950.41,397.8l19.307,20.37Zm.038,91.95-16-13.573L969.6,483.141Zm-27.027-13.6-13.992,11.733-.045-23.637ZM884.147,583.3l-11.948-1.84-6.64,6.641L848.4,570.941V547.6h23.335L888.9,564.768l-7.349,7.355Zm-64.2,40.392,5.688-7.161,6.868,6.89-6.518,6.664Zm15.852,27.131-10.14,10.239-10.158-10.1,10.4-10.628Zm-10.764-44.961-7.683-7.708h-9.061V573.884l16.5-16.5,16.5,16.5v24.271H831.154Zm-16.744-42.029V547.6h6.725l4.753,4.753Zm21.527-11.477,4.753-4.753h6.724v16.23Zm1.809-11.86-6.834,6.835-6.834-6.835h-9.668V530.83L801.452,524l6.834-6.834v-9.667h9.668l6.834-6.834,6.834,6.834h9.667v9.667L848.124,524l-6.834,6.834V540.5Zm-70.941,24.269L777.845,547.6H801.18v23.337L784.017,588.1l-7.364-7.357L765.476,583.4l1.848-12Zm-19.805-40.735,9.752-7.152v-9.386H774.9L791.4,524l-16.5,16.5H750.629V530.1ZM784.951,540.5l11.477-11.477,4.753,4.753V540.5Zm11.477-21.527-11.477-11.477H801.18v6.724Zm-18.583-18.583-17.163-17.163,7.349-7.356-2.6-11.178,11.947,1.84,6.641-6.641,17.162,17.163v23.336Zm6.174-50.548-9.119,9.119-11.267-1.735-2.076-8L786.421,423.8h26.99l7.33,10.34-6.582,8.589H801.18V467ZM767.794,243.5H743.523v12.891l-8.567,6.282-.028-.033-.271.22-4.947-4.113-.016-38.452,18.258-15.311,9.9,1.629,2.357,10.136-9.581,9.59Zm-2.364-35.7,11.947,1.84L784.018,203,801.18,220.16V243.5H777.844l-17.163-17.164,7.349-7.356Zm-4.748,100.075,17.162-17.162H801.18v23.336l-17.163,17.163-7.364-7.356-11.177,2.657,1.848-12ZM740.877,267.14l9.752-7.151V250.6H774.9l16.5,16.5-16.5,16.5H750.629V273.212Zm44.073,16.466,11.477-11.477,4.753,4.753v6.725Zm11.477-21.527L784.951,250.6H801.18v6.724Zm-62.813,10.777,1.3-1.057,8.606,5.359v13.554h24.271l-17.162,17.162,9.119,9.119-1.739,11.293-6.7,1.593-21.544-17.37-.053-36.308ZM749.563,337.6l6.464-1.537-2.02,6.919,19.885,19.763H729.839l-.06-41.1Zm12.449,3.319,1.969-6.747,10.456-2.485,9.583,9.573,17.16-17.16V348.37H814.4l6.183,6.2-6.491,8.171H783.973Zm63.682-183.581,5.849,5.815-6.278,8.192-5.608-7.911Zm-.04-10.058-10.158-10.1,10.4-10.628,9.9,10.484Zm6.213,45.665h9.423v24.272l-16.5,16.5-16.5-16.5V192.944h9.2v-.386l.3.23,7.258-9.471Zm9.423,34.322V243.5h-6.724l-4.753-4.753Zm-21.527,11.477-4.753,4.753h-6.725V227.266ZM817.954,250.6l6.834-6.834,6.834,6.834h9.667v9.667l6.834,6.834-6.834,6.834v9.668h-9.667l-6.834,6.834-6.834-6.834h-9.668v-9.668l-6.834-6.834,6.834-6.834V250.6ZM888.9,226.334,871.733,243.5H848.4V220.16L865.56,203l7.356,7.349,11.177-2.6-1.84,11.948Zm19.8,40.735-9.752,7.152v9.386H874.676l-16.5-16.5,16.5-16.5h24.272V261Zm12.622,9.861v34.915L900.314,328.9l-8.6-1.324-2.351-10.11,9.581-9.59-17.16-17.16h24.272V277.821l8.815-6.465,6.363,5.425-.037.047Zm-27.756,58.119,8.781,1.352L921.322,321v41.148H877.278l18.445-18.624ZM864.626,250.6,853.15,262.079l-4.753-4.753V250.6ZM853.15,272.129l11.477,11.477H848.4v-6.725Zm18.583,18.584L888.9,307.876l-7.349,7.356,2.6,11.177-11.948-1.84-6.64,6.641L848.4,314.048V290.713Zm-6.174,50.548,9.118-9.119,11.256,1.732,1.911,7.5-20.568,20.767H838.161l-8.081-8.107,4.5-5.669H848.4V324.1Zm-40.77,149.35-16.5-16.5V449.836h9.2v-.386l.3.23,7.258-9.471,6.825,9.627h9.423v24.272Zm16.5-6.452v16.229h-6.724l-4.753-4.752Zm-21.527,11.477-4.753,4.752h-6.725v-16.23Zm-.106-75.311,6.037-6.094,5.849,5.814-6.278,8.192Zm5.131-119.834,16.5,16.5v24.272H831.154l-6.123,7.708-7.683-7.708h-9.061V316.992Zm-16.5,6.452v-16.23h6.725l4.753,4.753Zm21.527-11.477,4.753-4.753h6.724v16.229Zm-4.183,64.176,6.868,6.89-6.518,6.663-6.039-6.393ZM835.8,393.932l-10.141,10.239-10.158-10.1,10.4-10.628Zm-5.1,15.248,9.983-10.079,16.84,17.828-19.074-.047Zm.17-30.816,8.914-9.112h20.46L840.8,388.881Zm-17.815-8.513,7.959,8.427-10.553,10.788-19.333-19.215Zm-2.522,29.3,10.126,10.065-7.4,7.474H793.372Zm25.013,43.574-5.973-8.425,7.908-10.319,26.77.067,8.473,8.97,13.737,13.739-1.272,10.312-10.036,2.349-9.59-9.581L848.4,467V442.73Zm42.308-14.623-3.806-4.029,47.284.118.085,45.054-19.087-16.187-9.77,2.286,1.376-11.16ZM848.4,514.218v-6.724h16.229L853.15,518.972ZM864.626,540.5H848.4v-6.724l4.753-4.753ZM848.4,500.388V477.052l17.163-17.163,7.356,7.348,11.177-2.6-1.84,11.947,6.642,6.641-17.162,17.161ZM858.175,524l16.5-16.5h24.272v10.394l9.752,6.072-9.752,7.152V540.5H874.675Zm47.88-10.053V500.388H881.783l17.162-17.161-9.12-9.119,1.726-11.21,8.914-2.1,20.967,17.782.068,35.505-6.706,5.3Zm-38.739-96.989-21.635-22.9,24.56-24.8h53.106l22.146,23.366-20.8,24.48Zm82.8-29.784-21.693-22.888V315.229l20.13-16.341,21.117,17.026.07,48.159Zm-21.693-81.095V282.658L942.9,294.327ZM954.2,294.308l15.427-12.523.036,24.99Zm-39.405-31.816-8.739-5.441V243.5H881.783l17.162-17.163-9.12-9.118,1.726-11.21,8.914-2.1,20.967,17.782L921.5,257.2ZM902.326,196.17l-9.77,2.286,1.376-11.159-16.083-16.084-3.806-4.029,47.284.118.085,45.054Zm-15.871-6.3-1.272,10.312-10.036,2.349-9.59-9.581L848.4,210.11V185.838H835.541l-5.973-8.425,7.908-10.319,26.77.067,8.473,8.97Zm-48.012-29.88-7.749-7.7,9.983-10.079,16.84,17.828Zm-7.579-38.519,8.913-9.112h20.461L840.8,131.988Zm-4.883-5.17-6.039-6.393,5.688-7.16,6.868,6.89Zm-4.973,5.085-10.553,10.788-19.333-19.215H813.05Zm-10.482,20.877,10.127,10.065-7.4,7.474h-19.88Zm2.884,24.645,7.33,10.34-6.582,8.589H801.18V210.11l-17.162-17.163-9.119,9.12-11.268-1.735-2.076-8,24.865-25.422Zm-59.742,23.322,2.3,8.866-10.083-1.657-16.2,13.582-.019-44.112h46.81ZM776.481,423.8l-22.812,23.322,2.3,8.866-10.082-1.657-16.2,13.582-.019-44.112Zm-28.529,38.071,9.9,1.628,2.357,10.137-9.581,9.591,17.16,17.16H743.523V513.28l-8.567,6.281-.028-.033-.271.22-4.947-4.114-.016-38.451Zm-14.338,67.876,1.3-1.057,8.606,5.358V547.6h24.272l-17.162,17.163,9.119,9.119-1.739,11.293-6.7,1.593L729.766,569.4l-.053-36.308Zm15.949,64.743,6.463-1.537-2.019,6.919,19.885,19.763H729.839l-.06-41.1Zm12.449,3.319,1.969-6.747,10.456-2.485,9.583,9.573,17.16-17.16v24.271H814.4l6.183,6.2-6.491,8.171H783.973Zm51.038,28.933,7.958,8.426-10.552,10.789-19.333-19.215Zm-2.523,29.3,10.126,10.065-7.4,7.474H793.372Zm15.167,15.074,5.85,5.815-6.278,8.192-5.608-7.911Zm5-5.049,9.983-10.08,16.839,17.828-19.073-.047Zm.171-30.817,8.914-9.112h20.46L840.8,645.772Zm7.3-16.219-8.081-8.106,4.5-5.669H848.4V580.99l17.162,17.163,9.118-9.119,11.256,1.733,1.911,7.5-20.567,20.766Zm57.561-18.622-2.157-8.473,8.781,1.352,18.975-15.4v41.147H877.278Zm4.591-14.624-8.6-1.325-2.351-10.11,9.581-9.59L881.782,547.6h24.273V534.713l8.815-6.464,6.363,5.425-.037.046.126.1v34.915Zm54.724-193.432,19.122-22.506h53.893l24.445,24.3-22.056,22.548H978.1Zm261.545-231.075.023,55.7L1195.119,235l-19.578-16.6-.1-51.615,21.976-25.865,19.307,20.37Zm.039,91.949-16-13.572,15.992-13.411Zm-27.027-13.6L1175.6,251.363l-.045-23.637Zm-13.974,21v-.01l19.473-16.329,27.609,23.414-27.15,22.04-21.131-17.036-6.778-5.778,7.591-5.995,0,.005.177-.148Zm40.962,157.543.023,55.7-21.488,18.018-19.578-16.6-.1-51.615L1197.42,397.8l19.307,20.37Zm.039,91.949-16-13.572,15.992-13.411Zm-27.027-13.6L1175.6,508.255l-.045-23.637ZM1131.157,583.3l-11.947-1.84-6.641,6.641-17.162-17.162V547.6h23.336l17.164,17.164-7.348,7.355Zm-64.2,40.392,5.688-7.16,6.868,6.89-6.517,6.663Zm15.851,27.131-10.141,10.239-10.158-10.1,10.4-10.628Zm-10.764-44.961-7.683-7.708h-9.06V573.884l16.5-16.5,16.5,16.5v24.271h-10.137ZM1055.3,563.834V547.6h6.724l4.753,4.753Zm21.526-11.477,4.753-4.753h6.724v16.23Zm1.81-11.86-6.835,6.835-6.833-6.835H1055.3V530.83L1048.463,524l6.834-6.834v-9.667h9.667l6.834-6.834,6.834,6.834h9.667v9.667l6.834,6.834-6.834,6.834V540.5Zm-70.941,24.269,17.163-17.163h23.336v23.337L1031.028,588.1l-7.364-7.357-11.178,2.657,1.848-12Zm-19.805-40.735,9.752-7.152v-9.386h24.272l16.5,16.5-16.5,16.5H997.639V530.1Zm44.075,16.466,11.477-11.477,4.753,4.753V540.5Zm11.477-21.527-11.477-11.477h16.23v6.724Zm-18.584-18.583-17.163-17.163,7.349-7.356-2.6-11.178,11.947,1.84,6.641-6.641,17.162,17.163v23.336Zm6.175-50.548-9.119,9.119-11.268-1.735-2.076-8,24.866-25.422h26.99l7.33,10.34-6.582,8.589h-12.979V467ZM1014.805,243.5H990.533v12.891l-8.567,6.282-.028-.034-.271.22-4.947-4.113-.016-38.451,18.259-15.312,9.9,1.629,2.357,10.136-9.581,9.59Zm-2.365-35.7,11.948,1.84,6.641-6.642,17.162,17.163V243.5h-23.337l-17.163-17.164,7.349-7.356Zm-4.748,100.075,17.162-17.162h23.337v23.336l-17.163,17.163-7.364-7.356-11.178,2.657,1.848-12Zm-19.8-40.734,9.751-7.151V250.6h24.272l16.5,16.5-16.5,16.5H997.639V273.212Zm44.073,16.466,11.477-11.477,4.753,4.753v6.725Zm11.477-21.527L1031.961,250.6h16.23v6.724Zm-62.807,10.772,1.3-1.052,8.606,5.359v13.554H1014.8l-17.162,17.162,9.119,9.119-1.739,11.293-6.7,1.593-21.543-17.37-.053-36.308ZM996.573,337.6l6.464-1.537-2.019,6.919,19.885,19.763H976.849l-.06-41.1Zm12.45,3.319,1.969-6.747,10.456-2.485,9.583,9.573,17.16-17.16V348.37h13.216l6.184,6.2-6.491,8.171h-30.116ZM1072.7,157.337l5.85,5.815-6.278,8.192-5.608-7.911Zm-.039-10.058-10.158-10.1,10.4-10.628,9.9,10.484Zm6.213,45.665h9.423v24.273l-16.5,16.5-16.5-16.5V192.944h9.2v-.385l.3.23,7.259-9.472Zm9.423,34.322V243.5h-6.724l-4.753-4.753Zm-21.527,11.477-4.753,4.753H1055.3v-16.23Zm-1.809,11.859,6.834-6.834,6.834,6.834h9.667v9.667l6.834,6.834-6.834,6.834v9.668h-9.667l-6.834,6.834-6.834-6.834H1055.3v-9.668l-6.834-6.834,6.834-6.834V250.6Zm70.94-24.268L1118.743,243.5h-23.336V220.16L1112.57,203l7.356,7.349,11.178-2.6-1.84,11.948Zm19.805,40.735-9.752,7.152v9.386h-24.272l-16.5-16.5,16.5-16.5h24.272V261Zm12.621,9.861v34.915L1147.325,328.9l-8.6-1.324-2.351-10.11,9.581-9.59-17.16-17.16h24.271V277.821l8.815-6.465,6.363,5.425-.037.047Zm-27.755,58.119,8.781,1.352,18.975-15.4v41.148h-44.043l18.445-18.624Zm-28.94-84.446-11.477,11.477-4.753-4.753V250.6Zm-11.477,21.527,11.477,11.477h-16.23v-6.725Zm18.584,18.584,17.163,17.163-7.348,7.356,2.6,11.177-11.947-1.84-6.641,6.641-17.162-17.162V290.713Zm-6.175,50.548,9.119-9.119,11.256,1.732,1.911,7.5-20.568,20.767h-29.115l-8.08-8.107,4.5-5.669h13.812V324.1ZM1071.8,490.61l-16.5-16.5V449.836h9.2v-.385l.3.23,7.259-9.472,6.824,9.627h9.423v24.272Zm16.5-6.452v16.229h-6.724l-4.753-4.752Zm-21.527,11.477-4.753,4.752H1055.3v-16.23Zm-.106-75.311,6.036-6.094,5.85,5.814-6.278,8.192ZM1071.8,300.49l16.5,16.5v24.272h-10.137l-6.123,7.708-7.683-7.708h-9.06V316.992Zm-16.5,6.451V290.713h6.724l4.753,4.753Zm21.526-11.477,4.753-4.753h6.724v16.229Zm-4.182,64.176,6.868,6.89-6.517,6.663-6.039-6.393Zm10.164,34.291-10.141,10.24-10.158-10.1,10.4-10.628Zm-5.1,15.249,9.983-10.079,16.84,17.828-19.075-.047Zm.171-30.817,8.912-9.112h20.461l-19.44,19.628Zm-17.815-8.512,7.959,8.426-10.553,10.789-19.333-19.215Zm-2.523,29.3,10.126,10.065-7.4,7.474h-19.88Zm25.014,43.574-5.973-8.425,7.908-10.319,26.768.067,8.474,8.97,13.737,13.739-1.272,10.312-10.036,2.349-9.591-9.581L1095.407,467V442.73Zm42.308-14.623-3.806-4.029,47.284.118.086,45.054-19.087-16.187-9.77,2.286,1.377-11.16Zm-29.453,86.112v-6.724h16.23l-11.477,11.477Zm16.229,26.279h-16.229v-6.724l4.753-4.753Zm-16.229-40.11V477.052l17.163-17.163,7.356,7.348,11.178-2.6-1.84,11.948,6.64,6.641-17.162,17.161ZM1105.184,524l16.5-16.5h24.272v10.394l9.752,6.072-9.752,7.152V540.5h-24.273Zm47.88-10.053V500.388h-24.271l17.162-17.161-9.119-9.119,1.726-11.21,8.913-2.1,20.967,17.782.067,35.505-6.7,5.3Zm-38.739-96.989-21.635-22.905,24.559-24.8h53.107l22.146,23.366-20.8,24.48Zm82.805-29.784-21.693-22.888V315.229l20.129-16.341,21.118,17.026.071,48.159Zm-21.693-81.095V282.658l14.472,11.668Zm25.771-11.768,15.427-12.522.036,24.99ZM1161.8,262.492l-8.739-5.441V243.5h-24.271l17.162-17.163-9.119-9.118,1.726-11.21,8.913-2.1,20.967,17.781.067,35.506Zm-12.467-66.322-9.769,2.286,1.376-11.159-16.084-16.084-3.806-4.029,47.284.118.086,45.054Zm-15.87-6.3-1.272,10.312-10.036,2.349-9.591-9.581-17.16,17.161V185.838h-12.855l-5.973-8.425,7.908-10.32,26.768.067,8.474,8.97Zm-48.013-29.88-7.748-7.7,9.983-10.079,16.84,17.828Zm-7.577-38.519,8.912-9.112h20.461l-19.44,19.629Zm-4.884-5.17-6.039-6.393,5.688-7.16,6.868,6.89Zm-4.973,5.084-10.553,10.789-19.333-19.215h21.927Zm-10.482,20.878,10.126,10.065-7.4,7.474h-19.88Zm2.884,24.645,7.33,10.34-6.583,8.589h-12.978V210.11l-17.162-17.163-9.119,9.12-11.268-1.735-2.076-8,24.866-25.422Zm-59.742,23.322,2.3,8.866L992.9,197.439l-16.2,13.582-.019-44.112h46.81Zm22.812,233.57-22.812,23.322,2.3,8.866L992.9,454.331l-16.2,13.583-.019-44.113Zm-28.528,38.071,9.9,1.628,2.358,10.137-9.581,9.591,17.161,17.16H990.533V513.28l-8.567,6.282-.028-.034-.271.22-4.947-4.114-.016-38.45Zm-14.34,67.877,1.3-1.058,8.606,5.359V547.6h24.272l-17.163,17.163,9.119,9.119-1.739,11.293-6.7,1.593L976.776,569.4l-.053-36.308Zm15.95,64.743,6.464-1.537-2.019,6.919,19.885,19.763H976.849l-.06-41.1Zm12.45,3.319,1.968-6.746,10.457-2.486,9.583,9.573,17.16-17.161v24.272h13.216l6.184,6.2-6.491,8.171h-30.116Zm51.038,28.933,7.958,8.426-10.553,10.789-19.333-19.215Zm-2.523,29.3,10.126,10.065-7.4,7.474h-19.879Zm15.167,15.074,5.85,5.815-6.278,8.192-5.608-7.911Zm5-5.049,9.983-10.08,16.839,17.828-19.074-.047Zm.171-30.817,8.913-9.112h20.461l-19.44,19.629Zm7.3-16.219-8.08-8.106,4.5-5.669h13.812V580.99l17.162,17.163,9.119-9.119,11.256,1.733,1.911,7.5-20.567,20.766Zm57.561-18.622-2.157-8.473,8.781,1.352,18.975-15.4v41.147h-44.043Zm4.592-14.624-8.6-1.324-2.351-10.11,9.581-9.59L1128.793,547.6h24.272V534.713l8.815-6.464,6.363,5.425-.037.046.126.1v34.915Zm54.723-193.432,19.123-22.506h53.893l24.445,24.3-22.055,22.548h-52.339Zm102.5-250.094,10.126,10.064-7.4,7.474h-19.878Zm-.071-10.09-19.333-19.215h21.927l7.959,8.427Zm2.954,34.735,7.33,10.34-6.582,8.589H1295.2V210.11l-17.162-17.163-9.118,9.12-11.268-1.735-2.076-8,24.866-25.422Zm-5.125,60.357,11.477,11.477-4.753,4.753h-6.724ZM1295.2,442.73V467l-17.162-17.162-9.118,9.119-11.268-1.735-2.076-8,24.865-25.422h26.99l7.33,10.34-6.582,8.589Zm7.106,41.428,11.477,11.478-4.753,4.752h-6.724Zm-47.6,80.609,17.162-17.163H1295.2v23.337L1278.038,588.1l-7.365-7.357L1259.5,583.4l1.847-12ZM1234.9,524.032l9.752-7.152v-9.386h24.272l16.5,16.5-16.5,16.5H1244.65V530.1Zm44.074,16.466,11.477-11.477,4.753,4.753V540.5Zm11.477-21.527-11.477-11.477h16.23v6.724Zm-18.584-18.583L1254.7,483.225l7.348-7.356-2.6-11.178,11.948,1.84,6.64-6.641,17.162,17.163v23.336Zm35.406-83.693h-19.878l17.155-17.538,10.126,10.064Zm-2.794-27.628-19.333-19.215h21.927l7.959,8.427Zm-26.483-26.322-21.961-21.827,1.969-6.747,10.456-2.485,9.582,9.573L1295.2,324.1V348.37h13.217l6.183,6.2-6.491,8.171ZM1261.815,243.5h-24.272v12.891l-8.566,6.282-.028-.034-.271.22-4.947-4.113-.016-38.451,18.259-15.312,9.9,1.629,2.357,10.136-9.581,9.59Zm-2.364-35.7,11.948,1.84,6.64-6.642L1295.2,220.16V243.5h-23.337L1254.7,226.332l7.348-7.356ZM1254.7,307.874l17.162-17.162H1295.2v23.336l-17.163,17.163-7.365-7.356-11.177,2.657,1.847-12Zm-19.8-40.734,9.751-7.151V250.6h24.272l16.5,16.5-16.5,16.5H1244.65V273.212Zm44.072,16.466,11.478-11.477,4.753,4.753v6.725Zm11.478-21.527L1278.972,250.6h16.23v6.724Zm-62.809,10.773,1.3-1.052,8.606,5.359v13.554h24.272l-17.162,17.162,9.12,9.119-1.739,11.293-6.7,1.593-21.543-17.37-.053-36.308Zm15.943,64.748,6.464-1.537-2.02,6.919,19.885,19.763H1223.86l-.06-41.1Zm4.107-147.368,2.3,8.866-10.083-1.657-16.2,13.582-.018-44.112h46.81ZM1270.5,423.8l-22.811,23.322,2.3,8.866-10.083-1.657-16.2,13.583-.018-44.113Zm-28.528,38.071,9.9,1.628,2.358,10.137-9.581,9.591,17.16,17.16h-24.272V513.28l-8.566,6.282-.028-.034-.271.22-4.947-4.114-.016-38.45Zm-14.341,67.877,1.3-1.059,8.606,5.359V547.6h24.273l-17.162,17.163,9.12,9.119-1.739,11.293-6.7,1.593-21.543-17.37-.053-36.308Zm15.95,64.742,6.464-1.537-2.02,6.919,19.885,19.763H1223.86l-.06-41.1Zm12.45,3.319,1.969-6.747,10.456-2.485,9.582,9.573L1295.2,580.99v24.272h13.217l6.183,6.2-6.491,8.171h-30.116Zm51.038,28.933,7.959,8.426-10.553,10.789-19.333-19.215Zm-2.523,29.3,10.126,10.065-7.4,7.474h-19.878Zm15.167,15.074,5.85,5.815-6.278,8.192-5.609-7.912Zm-.04-10.059-10.157-10.1,10.4-10.628,9.9,10.484Zm-5.711-37.37,5.688-7.16,6.868,6.891L1320,630.086Zm5.088-17.829-7.682-7.708h-9.062V573.884l16.5-16.5,16.5,16.5v24.272h-10.136Zm-16.744-42.029V547.6h6.724l4.754,4.753h0Zm21.527-11.477,4.753-4.753h6.724v16.23h0Zm1.809-11.86-6.834,6.835-6.834-6.835h-9.667V530.83L1295.473,524l6.834-6.834v-9.667h9.667l6.834-6.834,6.834,6.834h9.668v9.667l6.834,6.834-6.834,6.834V540.5Zm-1.809-44.862,11.477-11.478v16.23h-6.724Zm11.477-21.527-16.5,16.5-16.5-16.5V449.836h9.2v-.386l.3.23,7.258-9.471,6.825,9.627h9.423Zm-21.633-53.784,6.036-6.094,5.85,5.814-6.278,8.192Zm6-16.153-10.158-10.1,10.4-10.628,9.9,10.484Zm-5.711-37.371,5.688-7.16,6.868,6.89L1320,373.194Zm5.088-17.828-7.682-7.708h-9.062V316.992l16.5-16.5,16.5,16.5v24.273h-10.136Zm-16.744-42.03V290.713h6.724l4.753,4.753Zm21.527-11.477,4.753-4.753h6.724v16.229h0Zm1.809-11.859-6.834,6.834-6.834-6.834h-9.667v-9.668l-6.834-6.834,6.834-6.834V250.6h9.667l6.834-6.834,6.834,6.834h9.668v9.667l6.834,6.834-6.834,6.834v9.668Zm-1.809-44.863,11.477-11.477V243.5h-6.724Zm11.477-21.527-16.5,16.5-16.5-16.5V192.944h9.2v-.386l.3.23,7.258-9.471,6.825,9.627h9.423Zm-21.633-53.783,6.036-6.1,5.85,5.815-6.278,8.192Zm6-16.154-10.158-10.1,10.4-10.628,9.9,10.484Zm-5.711-37.371,5.688-7.16,6.868,6.89L1320,116.3Zm-5.546-18.43,6.183,6.2-6.491,8.171h-30.116l-21.961-21.827L1258,77.279l10.456-2.486,9.582,9.574,17.161-17.16V91.478Zm-40.5,14.374H1223.86l-.06-41.1,19.784,15.95,6.464-1.537-2.02,6.919Zm22.536-90.616,4.753,4.753v6.724h-16.231ZM1271.865,33.82H1295.2V57.156l-17.163,17.163-7.365-7.356L1259.5,69.62l1.847-12-6.641-6.641Zm-44.223-17.862,1.295-1.052,8.606,5.359V33.82h24.272l-17.162,17.162,9.12,9.119-1.739,11.293-6.7,1.593-21.543-17.369-.053-36.308Zm47.422,97,24.445,24.3L1277.454,159.8h-52.339l-23.066-24.337,19.123-22.506Zm-58.428-88.067.036,24.99-15.463-12.466Zm-41.2.874,14.472,11.668-14.472,11.749Zm0,32.57L1195.567,42l21.118,17.026.071,48.159-19.625,23.1-21.693-22.888Zm17.065,77.389-20.8,24.48-57.378-.143-21.635-22.9,24.56-24.8h53.106Zm-51.927-57.569,8.781,1.352,18.975-15.4v41.148h-44.043l18.444-18.623Zm12.488-44.336V20.928l8.815-6.465,6.364,5.425-.038.047.126.1V54.952l-21.007,17.054-8.6-1.325-2.351-10.11,9.581-9.59-17.16-17.16Zm-57.658-13.83,4.753-4.753,11.477,11.477h-16.23Zm0,13.83h23.336l17.163,17.163-7.348,7.356,2.6,11.177-11.948-1.84-6.641,6.641-17.162-17.162Zm0,57.658V67.206l17.162,17.162,9.119-9.119,11.256,1.733,1.911,7.5-20.567,20.766h-29.115l-8.08-8.106,4.5-5.669Zm-13.83-57.658h6.724V50.05l-11.477-11.477Zm-26.279,0h6.724l4.753,4.753L1055.3,50.05Zm0,26.279,16.5-16.5,16.5,16.5V84.372h-10.137l-6.123,7.708-7.683-7.708h-9.06Zm6.109,31.379,6.183,6.2-6.491,8.171h-30.116l-21.961-21.827,1.969-6.746,10.456-2.487,9.583,9.574,17.16-17.16V91.478Zm-40.5,14.374H976.849l-.06-41.1,19.784,15.95,6.464-1.537-2.019,6.919Zm22.535-90.616,4.753,4.753v6.724h-16.23ZM1024.854,33.82h23.337V57.156l-17.163,17.163-7.364-7.356-11.178,2.657,1.848-12-6.641-6.641ZM980.632,15.958l1.294-1.051,8.607,5.359V33.82H1014.8L997.643,50.982l9.119,9.119-1.739,11.293-6.7,1.593L976.776,55.619l-.053-36.308Zm47.421,97,24.445,24.3L1030.442,159.8H978.1l-23.066-24.337,19.122-22.506ZM969.625,24.892l.036,24.99L954.2,37.416Zm-41.2.874L942.9,37.434,928.427,49.183Zm0,32.57L948.557,42l21.118,17.026.07,48.159-19.625,23.1L928.427,107.39Zm17.065,77.389-20.8,24.48-57.378-.143-21.635-22.9,24.56-24.8h53.106ZM893.566,78.156l8.781,1.352,18.975-15.4v41.148H877.278L895.723,86.63ZM906.055,33.82V20.928l8.815-6.465,6.364,5.425-.038.047.126.1V54.952L900.314,72.006l-8.6-1.325-2.351-10.11,9.581-9.59-17.16-17.16ZM848.4,19.99l4.753-4.753,11.477,11.477H848.4Zm0,13.83h23.336L888.9,50.984l-7.349,7.356,2.6,11.177L872.2,67.677l-6.64,6.641L848.4,57.156Zm0,57.658V67.206l17.162,17.162,9.118-9.119,11.256,1.733,1.911,7.5-20.567,20.766H838.161l-8.081-8.106,4.5-5.669ZM834.566,33.82h6.724V50.05L829.814,38.573Zm-26.28,0h6.725l4.753,4.753L808.286,50.05Zm0,26.279,16.5-16.5,16.5,16.5V84.372H831.154l-6.123,7.708-7.683-7.708h-9.061ZM814.4,91.478l6.183,6.2-6.491,8.171H783.973L762.012,84.026l1.969-6.747,10.456-2.486,9.583,9.574,17.16-17.16V91.478Zm-40.5,14.374H729.839l-.06-41.1,19.784,15.95,6.464-1.537-2.02,6.919Zm22.535-90.616,4.753,4.753v6.724H784.95ZM777.844,33.82H801.18V57.156L784.017,74.319l-7.364-7.356L765.476,69.62l1.848-12-6.641-6.641ZM733.615,15.963l1.3-1.056,8.607,5.359V33.82h24.271L750.632,50.982l9.119,9.119-1.739,11.293-6.7,1.593L729.766,55.619l-.053-36.308Zm47.427,97,24.445,24.3L783.432,159.8H731.093l-23.066-24.337,19.123-22.506ZM722.615,24.892l.036,24.99L707.188,37.416Zm-41.2.875,14.472,11.667L681.418,49.183Zm0,32.568L701.546,42l21.119,17.026.07,48.158-19.625,23.1L681.418,107.39Zm17.065,77.389-20.8,24.48-57.378-.143-21.635-22.9,24.56-24.8h53.107ZM646.555,78.156l8.781,1.352,18.975-15.4v41.148H630.268L648.712,86.63ZM659.044,33.82V20.928l8.815-6.465,6.363,5.425-.039.047.127.1V54.952L653.3,72.006l-8.6-1.324-2.351-10.11,9.581-9.59-17.16-17.16ZM601.385,19.99l4.753-4.753,11.477,11.477h-16.23Zm0,13.83h23.337l17.163,17.163-7.349,7.356,2.6,11.177-11.947-1.84-6.641,6.641L601.385,57.157Zm0,57.658V67.206h0l17.163,17.163,9.119-9.119,11.256,1.733,1.911,7.5-20.567,20.766H591.15l-8.08-8.106,4.5-5.669ZM587.556,33.82h6.723V50.05L582.8,38.573Zm-26.28,0H568l4.753,4.753L561.276,50.05Zm0,26.279,16.5-16.5,16.5,16.5V84.372H584.143L578.02,92.08l-7.683-7.708h-9.061Zm6.111,31.379,6.183,6.2-6.491,8.171H536.962L515,84.026l1.969-6.747,10.456-2.486,9.582,9.574,17.16-17.16V91.478Zm-40.5,14.374H482.828l-.06-41.1,19.784,15.95,6.465-1.537L507,86.089Zm22.535-90.616,4.753,4.753v6.724h-16.23ZM530.833,33.82h23.336V57.156L537.006,74.319l-7.364-7.356L518.465,69.62l1.847-12-6.64-6.641ZM486.617,15.953l1.288-1.046,8.606,5.359V33.82h24.272L503.622,50.982,512.74,60.1,511,71.394l-6.7,1.593L482.755,55.619,482.7,19.31Zm47.415,97.007,24.445,24.3L536.421,159.8H484.083l-23.067-24.337,19.123-22.506ZM475.6,24.892l.036,24.99L460.177,37.416Zm-41.2.875,14.472,11.668L434.406,49.183Zm0,32.569L454.536,42l21.118,17.026.07,48.159-19.625,23.1L434.406,107.39Zm17.064,77.389-20.8,24.48-57.378-.143-21.635-22.9,24.56-24.8h53.106ZM399.545,78.156l8.781,1.352,18.975-15.4v41.148H383.257L401.7,86.63ZM412.033,33.82V20.928l8.815-6.465,6.363,5.425-.038.047.127.1V54.952L406.292,72.006l-8.6-1.324-2.351-10.11,9.581-9.59-17.16-17.16ZM354.376,19.99l4.753-4.753L370.6,26.714H354.376Zm0,13.83h23.336l17.163,17.163-7.348,7.356,2.6,11.177-11.948-1.84-6.64,6.641L354.376,57.156Zm0,57.658V67.206l17.162,17.162,9.118-9.119,11.256,1.733,1.911,7.5-20.567,20.766H344.139l-8.08-8.106,4.5-5.669ZM340.545,33.82h6.724V50.05h0L335.792,38.573Zm-26.28,0h6.724l4.753,4.753L314.265,50.05Zm0,26.279,16.5-16.5,16.5,16.5V84.372H337.132l-6.123,7.709-7.683-7.709h-9.061Zm6.111,31.379,6.183,6.2-6.491,8.171H289.952L267.991,84.026l1.969-6.747,10.456-2.486L290,84.367l17.162-17.161V91.478Zm-40.5,14.374H235.818l-.06-41.1,19.784,15.95L262,79.17l-2.019,6.919Zm22.535-90.616,4.753,4.753v6.724H290.929ZM283.823,33.82h23.337V57.156L290,74.319l-7.364-7.356L271.454,69.62l1.847-12-6.64-6.641ZM239.606,15.953l1.288-1.046,8.606,5.359V33.82h24.272L256.611,50.982l9.12,9.119-1.739,11.293-6.7,1.593L235.744,55.619l-.053-36.308Zm47.415,97.007,24.445,24.3L289.411,159.8H237.073l-23.066-24.337,19.122-22.506ZM228.593,24.892l.036,24.99L213.167,37.415Zm-41.2.875,14.472,11.668L187.4,49.182Zm0,32.568L207.525,42l21.118,17.026.07,48.159-19.625,23.1L187.4,107.39Zm17.064,77.389-20.8,24.48-57.378-.143-21.634-22.9,24.559-24.8h53.107ZM152.533,78.156l8.781,1.352L180.29,64.1v41.148H136.247L154.691,86.63Zm12.49-44.336V20.928l8.815-6.465,6.363,5.425-.038.047.127.1V54.951L159.282,72.006l-8.6-1.324-2.351-10.11,9.581-9.59-17.16-17.16ZM107.364,19.99l4.753-4.753,11.477,11.477h-16.23Zm0,13.83H130.7l17.163,17.163-7.349,7.356,2.6,11.177-11.946-1.84-6.642,6.641L107.364,57.156Zm0,57.658V67.206l17.162,17.162,9.12-9.119L144.9,76.982l1.911,7.5-20.567,20.766H97.13l-8.08-8.106,4.5-5.669ZM93.535,33.82h6.724V50.05L88.781,38.573Zm-26.28,0h6.724l4.753,4.753L67.254,50.05Zm0,26.279,16.5-16.5,16.5,16.5V84.372H90.122L84,92.08l-7.683-7.709H67.254ZM55.4,15.237l4.753,4.753v6.724H43.918ZM36.812,33.82H60.148V57.156L42.985,74.319l-7.364-7.356L24.444,69.62l1.847-12-6.64-6.641ZM20.98,84.026l1.969-6.747,10.456-2.486,9.582,9.574,17.16-17.16V91.478H73.365l6.183,6.2-6.491,8.171H42.941Zm29.111,28.933H72.017l7.96,8.427L69.425,132.174Zm19.4,29.3,10.126,10.065-7.4,7.474H52.34ZM45.389,166.909H72.38l7.33,10.34-6.582,8.589H60.148V210.11L42.986,192.948l-9.119,9.12L22.6,200.333l-2.076-8ZM19.649,226.332,27,218.977,24.4,207.8l11.948,1.84L42.986,203,60.148,220.16V243.5H36.812Zm24.27,24.27H60.148v6.724L55.4,262.079ZM55.4,272.129l4.753,4.753v6.725H43.918ZM36.812,290.713H60.148v23.336L42.985,331.212l-7.364-7.356-11.177,2.657,1.847-12-6.64-6.641ZM20.98,340.918l1.969-6.747,10.456-2.485,9.582,9.573,17.16-17.16V348.37H73.365l6.183,6.2-6.491,8.171H42.941Zm29.111,28.933H72.017l7.96,8.427L69.425,389.066Zm19.4,29.3L79.621,409.22l-7.4,7.474H52.34ZM45.389,423.8H72.38l7.33,10.34-6.582,8.589H60.148V467L42.986,449.84l-9.118,9.119L22.6,457.224l-2.076-8ZM19.649,483.225,27,475.869l-2.6-11.178,11.948,1.84,6.64-6.641,17.162,17.163v23.336H36.812Zm24.27,24.269H60.148v6.724L55.4,518.971ZM55.4,529.021l4.753,4.753V540.5H43.919ZM36.812,547.6H60.148v23.337L42.985,588.1l-7.364-7.357L24.444,583.4l1.847-12-6.641-6.641ZM20.98,597.811l1.969-6.746,10.456-2.486,9.582,9.573,17.16-17.16v24.271H73.365l6.183,6.2-6.491,8.171H42.941Zm29.111,28.933H72.017l7.959,8.426L69.425,645.959Zm19.4,29.3,10.126,10.065-7.4,7.474H52.34ZM60.148,771.11,55.4,775.863,43.919,764.387H60.148Zm0-13.83H36.812L19.649,740.117,27,732.761l-2.6-11.178,11.948,1.84,6.64-6.64,17.162,17.161Zm0-57.659v24.272L42.986,706.732l-9.118,9.119L22.6,714.116l-2.076-8,24.865-25.422H72.38l7.33,10.339-6.582,8.59Zm13.83,57.659H67.254V741.05l11.477,11.477Zm26.28,0H93.535l-4.753-4.753h0l11.477-11.477Zm0-26.28-16.5,16.5L67.254,731V706.729h9.2v-.385l.3.229,7.258-9.472,6.825,9.627h9.422Zm-5.75-31.379L88.536,691.2l7.908-10.32,26.768.067,8.473,8.97,13.737,13.739-1.272,10.312-10.036,2.349-9.591-9.581-17.16,17.16V699.622ZM136.817,685l-3.806-4.029,47.285.118.086,45.055-19.087-16.187-9.771,2.286,1.376-11.16Zm-24.7,90.865-4.753-4.753v-6.724h16.23ZM130.7,757.281H107.364V733.944l17.163-17.163,7.356,7.348,11.177-2.6-1.839,11.948,6.64,6.64Zm43.061,19-8.738-5.441V757.281H140.75l17.163-17.163L148.793,731l1.726-11.21,8.914-2.1L180.4,735.474l.067,35.505Zm9.9-102.288-57.378-.143-21.635-22.9,24.56-24.8h53.107l22.145,23.366Zm3.9,91.158-.045-23.636,14.036,11.9Zm25.014-11.7,15.993-13.412.011,26.985Zm15.966-78.377.023,55.695-21.487,18.019-19.577-16.6-.1-51.616L209.378,654.7l19.307,20.37Zm-14.535-25.818,19.122-22.506h53.893l24.444,24.3-22.055,22.548H237.073Zm21.644,31.444h46.81l-22.811,23.321,2.3,8.866-10.083-1.657-16.2,13.582ZM249.5,757.281v12.891l-8.566,6.281-.028-.034-.271.221-4.947-4.114-.016-38.451,18.259-15.312,9.9,1.628,2.357,10.137-9.581,9.59,17.161,17.161Zm57.659,13.83-4.753,4.753-11.477-11.477h16.23Zm0-13.83H283.823l-17.163-17.164,7.348-7.356-2.6-11.178,11.947,1.84,6.641-6.64,17.163,17.161Zm0-57.659v24.273L290,706.732l-9.119,9.119-11.267-1.735-2.076-8L292.4,680.693h26.99l7.33,10.34-6.582,8.589Zm18.583,52.906-4.753,4.753h-6.724V741.05l11.477,11.477Zm21.527,4.753h-6.724l-4.753-4.753,11.477-11.477Zm0-26.28-16.5,16.5-16.5-16.5V706.729h9.2v-.385l.3.229,7.258-9.472,6.825,9.627h9.423Zm-5.75-31.379-5.973-8.425,7.908-10.32,26.769.067,8.473,8.97,13.738,13.739-1.272,10.312-10.036,2.349-9.59-9.581-17.16,17.16V699.622ZM383.828,685l-3.806-4.03,47.285.118.085,45.055L408.3,709.955l-9.77,2.286,1.376-11.16Zm-24.7,90.865-4.753-4.753v-6.724H370.6Zm18.583-18.582H354.376V733.944l17.163-17.163,7.356,7.348,11.178-2.6-1.84,11.948,6.641,6.64Zm43.061,19-8.739-5.441V757.281H387.761l17.163-17.163L395.8,731l1.726-11.21,8.914-2.1,20.966,17.781.068,35.505Zm9.9-102.288-57.378-.143-21.634-22.9,24.56-24.8h53.106l22.145,23.366Zm3.9,91.158-.044-23.636,14.036,11.9Zm25.014-11.7,15.993-13.412.011,26.985Zm15.966-78.377.023,55.695-21.487,18.019-19.577-16.6-.1-51.616L456.388,654.7l19.307,20.37Zm-14.536-25.818,19.123-22.506h53.893l24.445,24.3-22.055,22.548H484.083Zm21.644,31.444h46.81l-22.812,23.321,2.3,8.866-10.083-1.657-16.2,13.582Zm13.851,76.588v12.891l-8.566,6.281-.027-.034-.272.221-4.947-4.114-.016-38.451,18.259-15.312,9.9,1.628,2.357,10.137-9.581,9.59,17.16,17.161Zm57.658,13.83-4.753,4.753L537.94,764.387h16.229Zm0-13.83H530.833L513.67,740.117l7.348-7.356-2.6-11.178,11.947,1.84,6.641-6.64,17.162,17.161Zm0-57.659v24.272l-17.162-17.162-9.119,9.119-11.267-1.735-2.076-8,24.865-25.422H566.4l7.33,10.339-6.582,8.59ZM568,757.281h-6.724V741.05l11.477,11.477Zm26.279,0h-6.723l-4.753-4.753h0l11.477-11.477Zm0-26.28-16.5,16.5-16.5-16.5V706.729h9.2v-.385l.3.229,7.258-9.472,6.825,9.627h9.421Zm-5.749-31.379-5.972-8.425,7.908-10.32,26.769.067,8.473,8.97,13.737,13.739-1.272,10.312-10.036,2.349-9.59-9.581-17.161,17.16V699.622ZM630.839,685l-3.806-4.029,47.285.118.086,45.055-19.087-16.187-9.771,2.286,1.376-11.16Zm-24.7,90.865-4.753-4.753v-6.724h16.23Zm18.583-18.582H601.385V733.944l17.164-17.163,7.356,7.348,11.177-2.6-1.84,11.948,6.641,6.64Zm43.061,19-8.738-5.441V757.281H634.771l17.162-17.163L642.815,731l1.726-11.21,8.914-2.1,20.967,17.782.068,35.5Zm9.9-102.288-57.378-.143-21.635-22.9,24.56-24.8h53.107l22.146,23.366Zm3.9,91.158-.044-23.636,14.036,11.9Zm25.014-11.7,15.993-13.412.011,26.985Zm15.966-78.377.023,55.694L701.1,748.781l-19.577-16.6-.1-51.617L703.4,654.7l19.307,20.371Zm-14.536-25.818,19.123-22.506h53.893l24.444,24.3-22.055,22.548H731.094Zm21.644,31.444h46.81l-22.812,23.321,2.3,8.866-10.082-1.657L729.69,724.8Zm13.851,76.588v12.891l-8.567,6.281-.028-.034-.271.221-4.947-4.114-.016-38.452,18.258-15.311,9.9,1.628,2.357,10.137-9.581,9.59,17.161,17.161Zm57.657,13.83-4.753,4.753-11.477-11.477H801.18Zm0-13.83H777.844l-17.163-17.164,7.349-7.356-2.6-11.178,11.947,1.84,6.641-6.64,17.162,17.161Zm0-57.659v24.272l-17.162-17.162-9.119,9.119-11.268-1.735-2.076-8,24.865-25.422h26.99l7.33,10.34-6.582,8.589Zm13.831,57.659h-6.725V741.05l11.477,11.477Zm26.279,0h-6.724l-4.753-4.753,11.477-11.477Zm0-26.28-16.5,16.5-16.5-16.5V706.729h9.2v-.386l.3.23,7.258-9.471,6.825,9.627h9.423Zm-5.749-31.379-5.973-8.425,7.908-10.319,26.769.067,8.473,8.97,13.737,13.739-1.272,10.312-10.036,2.349-9.59-9.581-17.16,17.16V699.622ZM877.849,685l-3.806-4.029,47.285.118.085,45.055-19.087-16.187-9.77,2.286,1.376-11.16Zm-24.7,90.865L848.4,771.11v-6.724h16.229Zm18.583-18.582H848.4V733.944l17.163-17.163,7.356,7.348,11.177-2.6-1.84,11.948,6.642,6.64Zm43.061,19-8.739-5.441V757.281H881.783l17.162-17.163L889.825,731l1.726-11.21,8.914-2.1,20.967,17.782.068,35.5Zm9.9-102.288-57.379-.143-21.634-22.9,24.56-24.8h53.106l22.146,23.366Zm3.9,91.159-.045-23.637,14.037,11.9Zm25.014-11.7L969.6,740.033l.011,26.984Zm15.966-78.377.023,55.695-21.487,18.019-19.578-16.6-.1-51.616L950.41,654.7l19.307,20.37ZM955.038,649.25l19.122-22.506h53.893l24.444,24.3-22.055,22.548H978.1Zm21.644,31.443h46.809l-22.811,23.321,2.3,8.866L992.9,711.223l-16.2,13.583Zm13.852,76.588v12.891l-8.567,6.281-.028-.034-.271.221-4.947-4.114-.016-38.451,18.259-15.312,9.9,1.628,2.358,10.137-9.581,9.59,17.161,17.161Zm57.658,13.83-4.753,4.753-11.477-11.477h16.23Zm0-13.83h-23.337l-17.163-17.164,7.349-7.356-2.6-11.178,11.947,1.84,6.641-6.64,17.162,17.161Zm0-57.659v24.272l-17.162-17.162-9.119,9.119-11.268-1.735-2.076-8,24.865-25.422h26.991l7.33,10.34-6.582,8.589Zm13.83,57.659H1055.3V741.05l11.476,11.477Zm26.279,0h-6.724l-4.753-4.753,11.477-11.477Zm0-26.28-16.5,16.5L1055.3,731V706.729h9.2v-.385l.3.23,7.259-9.472,6.824,9.627h9.423Zm-5.749-31.379-5.973-8.425,7.908-10.32,26.768.067,8.474,8.97,13.737,13.739-1.272,10.312-10.036,2.349-9.591-9.581-17.16,17.16V699.622ZM1124.86,685l-3.806-4.029,47.285.118.086,45.055-19.087-16.187-9.77,2.286,1.377-11.16Zm-24.7,90.865-4.753-4.753v-6.724h16.23Zm18.584-18.582h-23.336V733.944l17.163-17.163,7.356,7.348,11.178-2.6-1.84,11.948,6.64,6.64Zm43.061,19-8.739-5.441V757.281h-24.271l17.162-17.163L1136.836,731l1.726-11.21,8.913-2.1,20.967,17.781.067,35.505Zm9.9-102.288-57.379-.143-21.634-22.9,24.56-24.8h53.106l22.146,23.366Zm3.9,91.159-.045-23.637,14.037,11.9Zm25.014-11.7,15.992-13.411.012,26.983Zm15.966-78.377.023,55.695-21.488,18.019-19.578-16.6-.1-51.616L1197.42,654.7l19.307,20.37Zm-14.536-25.817,19.123-22.506h53.893l24.445,24.3-22.055,22.548h-52.339Zm21.644,31.443H1270.5l-22.811,23.321,2.3,8.866-10.083-1.657-16.2,13.583Zm13.851,76.588v12.891l-8.566,6.281-.028-.034-.271.221-4.947-4.114-.016-38.451,18.259-15.312,9.9,1.628,2.358,10.137-9.581,9.59,17.16,17.161Zm57.659,13.83-4.753,4.753-11.477-11.477h16.23Zm0-13.83h-23.337L1254.7,740.117l7.348-7.356-2.6-11.178,11.948,1.84,6.64-6.64,17.162,17.161Zm0-57.659v24.272l-17.162-17.162-9.118,9.119-11.268-1.735-2.076-8,24.865-25.422h26.99l7.33,10.34-6.582,8.589Zm13.83,57.659h-6.724V741.05l11.477,11.477Zm26.28,0h-6.724l-4.753-4.753,11.477-11.477Zm0-26.28-16.5,16.5-16.5-16.5V706.729h9.2v-.386l.3.23,7.258-9.471,6.825,9.627h9.423Zm11.859,44.862-4.753-4.753v-6.724h16.229Zm18.583-18.582h-23.336V733.944l17.163-17.163,7.355,7.348,11.178-2.6-1.84,11.948,6.641,6.64Zm.985-67.366,13.737,13.739-1.271,10.312-10.036,2.349-9.59-9.581-17.16,17.16V699.622h-12.856l-5.973-8.425,7.908-10.32,26.769.067Zm-15.2-16.093-19.075-.047-7.749-7.7,9.983-10.08Zm-16.719-28.049-9.933-10.516,8.913-9.112h20.461Zm26.479-26.736h-29.116l-8.081-8.106,4.5-5.669h13.813V580.99l17.162,17.163,9.119-9.119,11.257,1.733,1.911,7.5Zm21.618-54.268-7.349,7.355,2.6,11.178-11.947-1.84-6.641,6.641-17.162-17.162V547.6h23.335Zm-24.27-24.271h-16.229v-6.724l4.753-4.753Zm-11.476-21.527-4.753-4.753v-6.724h16.229Zm18.583-18.583h-23.336V477.052l17.163-17.163,7.355,7.348,11.178-2.6-1.84,11.948,6.641,6.641Zm.985-67.365,13.737,13.739-1.271,10.312-10.036,2.349-9.59-9.581L1342.418,467V442.73h-12.856l-5.973-8.425,7.908-10.32,26.769.067Zm-15.2-16.093-19.075-.047-7.748-7.7,9.983-10.08ZM1334.82,388.88l-9.933-10.516,8.913-9.112h20.46Zm26.478-26.735h-29.115l-8.081-8.107,4.5-5.669h13.813V324.1l17.162,17.162,9.119-9.119,11.257,1.733,1.911,7.5Zm21.619-54.269-7.349,7.356,2.6,11.177-11.947-1.84-6.641,6.641-17.162-17.162V290.713h23.336Zm-24.269-24.27h-16.23v-6.725l4.753-4.753Zm-11.477-21.527-4.753-4.753V250.6h16.229Zm18.583-18.582h-23.336V220.16L1359.581,203l7.355,7.349,11.178-2.6-1.84,11.948,6.641,6.64Zm.985-67.366,13.737,13.74-1.271,10.312-10.036,2.349-9.59-9.581-17.16,17.161V185.838h-12.856l-5.973-8.425,7.908-10.32,26.769.067Zm-15.2-16.093-19.075-.047-7.748-7.7,9.983-10.08Zm-16.719-28.049-9.933-10.517,8.913-9.112h20.461Zm26.479-26.735h-29.116l-8.081-8.106,4.5-5.669h13.813V67.206l17.162,17.162,9.119-9.119,11.256,1.733,1.911,7.5Zm21.618-54.269-7.349,7.356,2.6,11.177-11.947-1.84-6.641,6.641-17.162-17.162V33.82h23.336Z" transform="translate(524.112 4615.621)" opacity="0.071" fill="url(#radial-gradient)"/>
  </g>
</svg>
